<svg xmlns="http://www.w3.org/2000/svg" width="720" height="432" viewBox="0 0 720 432"><rect width="100%" height="100%" fill="#06080c"/><rect x="0" y="0" width="720" height="432" fill="#06080c"/><line x1="0" y1="0" x2="0" y2="432" stroke="#172332" stroke-width="1"/><line x1="72" y1="0" x2="72" y2="432" stroke="#172332" stroke-width="1"/><line x1="144" y1="0" x2="144" y2="432" stroke="#172332" stroke-width="1"/><line x1="216" y1="0" x2="216" y2="432" stroke="#172332" stroke-width="1"/><line x1="288" y1="0" x2="288" y2="432" stroke="#172332" stroke-width="1"/><line x1="360" y1="0" x2="360" y2="432" stroke="#172332" stroke-width="1"/><line x1="432" y1="0" x2="432" y2="432" stroke="#172332" stroke-width="1"/><line x1="504" y1="0" x2="504" y2="432" stroke="#172332" stroke-width="1"/><line x1="576" y1="0" x2="576" y2="432" stroke="#172332" stroke-width="1"/><line x1="648" y1="0" x2="648" y2="432" stroke="#172332" stroke-width="1"/><line x1="720" y1="0" x2="720" y2="432" stroke="#172332" stroke-width="1"/><line x1="0" y1="0" x2="720" y2="0" stroke="#172332" stroke-width="1"/><line x1="0" y1="72" x2="720" y2="72" stroke="#172332" stroke-width="1"/><line x1="0" y1="144" x2="720" y2="144" stroke="#172332" stroke-width="1"/><line x1="0" y1="216" x2="720" y2="216" stroke="#172332" stroke-width="1"/><line x1="0" y1="288" x2="720" y2="288" stroke="#172332" stroke-width="1"/><line x1="0" y1="360" x2="720" y2="360" stroke="#172332" stroke-width="1"/><line x1="0" y1="432" x2="720" y2="432" stroke="#172332" stroke-width="1"/><path d="M-80 332.64 L216 129.6 L388.8 293.76000000000005 L800 86.4" fill="none" stroke="#ffcc4d" stroke-width="15.120000000000001" stroke-linecap="square" stroke-linejoin="round"/><line x1="-120" y1="0" x2="60" y2="432" stroke="#ff5d73" stroke-width="18" opacity="0.8"/><text x="360" y="177.12" fill="#f7fbff" font-family="Arial Black, Segoe UI, Arial, sans-serif" font-size="73.44000000000001" font-weight="900" text-anchor="middle" dominant-baseline="middle">ONE CANVAS</text><text x="360" y="263.52" fill="#46f6d6" font-family="Arial Black, Segoe UI, Arial, sans-serif" font-size="38.879999999999995" font-weight="900" text-anchor="middle" dominant-baseline="middle">EVERY KEY</text><text x="24" y="404" fill="#9fb3c8" font-family="Segoe UI, Arial, sans-serif" font-size="15.120000000000001" font-weight="700" dominant-baseline="middle">SIGNAL  /  PRESS ANY KEY</text></svg>