<svg xmlns="http://www.w3.org/2000/svg" width="1152" height="576" viewBox="0 0 1152 576"><rect width="100%" height="100%" fill="#06080c"/><rect x="0" y="0" width="1152" height="576" fill="#06080c"/><line x1="0" y1="0" x2="0" y2="576" stroke="#172332" stroke-width="1"/><line x1="72" y1="0" x2="72" y2="576" stroke="#172332" stroke-width="1"/><line x1="144" y1="0" x2="144" y2="576" stroke="#172332" stroke-width="1"/><line x1="216" y1="0" x2="216" y2="576" stroke="#172332" stroke-width="1"/><line x1="288" y1="0" x2="288" y2="576" stroke="#172332" stroke-width="1"/><line x1="360" y1="0" x2="360" y2="576" stroke="#172332" stroke-width="1"/><line x1="432" y1="0" x2="432" y2="576" stroke="#172332" stroke-width="1"/><line x1="504" y1="0" x2="504" y2="576" stroke="#172332" stroke-width="1"/><line x1="576" y1="0" x2="576" y2="576" stroke="#172332" stroke-width="1"/><line x1="648" y1="0" x2="648" y2="576" stroke="#172332" stroke-width="1"/><line x1="720" y1="0" x2="720" y2="576" stroke="#172332" stroke-width="1"/><line x1="792" y1="0" x2="792" y2="576" stroke="#172332" stroke-width="1"/><line x1="864" y1="0" x2="864" y2="576" stroke="#172332" stroke-width="1"/><line x1="936" y1="0" x2="936" y2="576" stroke="#172332" stroke-width="1"/><line x1="1008" y1="0" x2="1008" y2="576" stroke="#172332" stroke-width="1"/><line x1="1080" y1="0" x2="1080" y2="576" stroke="#172332" stroke-width="1"/><line x1="1152" y1="0" x2="1152" y2="576" stroke="#172332" stroke-width="1"/><line x1="0" y1="0" x2="1152" y2="0" stroke="#172332" stroke-width="1"/><line x1="0" y1="72" x2="1152" y2="72" stroke="#172332" stroke-width="1"/><line x1="0" y1="144" x2="1152" y2="144" stroke="#172332" stroke-width="1"/><line x1="0" y1="216" x2="1152" y2="216" stroke="#172332" stroke-width="1"/><line x1="0" y1="288" x2="1152" y2="288" stroke="#172332" stroke-width="1"/><line x1="0" y1="360" x2="1152" y2="360" stroke="#172332" stroke-width="1"/><line x1="0" y1="432" x2="1152" y2="432" stroke="#172332" stroke-width="1"/><line x1="0" y1="504" x2="1152" y2="504" stroke="#172332" stroke-width="1"/><line x1="0" y1="576" x2="1152" y2="576" stroke="#172332" stroke-width="1"/><line x1="0" y1="0" x2="1152" y2="576" stroke="#ffcc4d" stroke-width="14"/><line x1="1152" y1="0" x2="0" y2="576" stroke="#ff5d73" stroke-width="14"/><rect x="7" y="7" width="130" height="130" rx="12" fill="none" stroke="#46f6d6" stroke-width="4"/><text x="72" y="72" fill="#f7fbff" font-family="Consolas, Cascadia Mono, monospace" font-size="28" font-weight="800" text-anchor="middle" dominant-baseline="middle">0,0</text><rect x="151" y="7" width="130" height="130" rx="12" fill="none" stroke="#46f6d6" stroke-width="4"/><text x="216" y="72" fill="#f7fbff" font-family="Consolas, Cascadia Mono, monospace" font-size="28" font-weight="800" text-anchor="middle" dominant-baseline="middle">1,0</text><rect x="295" y="7" width="130" height="130" rx="12" fill="none" stroke="#46f6d6" stroke-width="4"/><text x="360" y="72" fill="#f7fbff" font-family="Consolas, Cascadia Mono, monospace" font-size="28" font-weight="800" text-anchor="middle" dominant-baseline="middle">2,0</text><rect x="439" y="7" width="130" height="130" rx="12" fill="none" stroke="#46f6d6" stroke-width="4"/><text x="504" y="72" fill="#f7fbff" font-family="Consolas, Cascadia Mono, monospace" font-size="28" font-weight="800" text-anchor="middle" dominant-baseline="middle">3,0</text><rect x="583" y="7" width="130" height="130" rx="12" fill="none" stroke="#46f6d6" stroke-width="4"/><text x="648" y="72" fill="#f7fbff" font-family="Consolas, Cascadia Mono, monospace" font-size="28" font-weight="800" text-anchor="middle" dominant-baseline="middle">4,0</text><rect x="727" y="7" width="130" height="130" rx="12" fill="none" stroke="#46f6d6" stroke-width="4"/><text x="792" y="72" fill="#f7fbff" font-family="Consolas, Cascadia Mono, monospace" font-size="28" font-weight="800" text-anchor="middle" dominant-baseline="middle">5,0</text><rect x="871" y="7" width="130" height="130" rx="12" fill="none" stroke="#46f6d6" stroke-width="4"/><text x="936" y="72" fill="#f7fbff" font-family="Consolas, Cascadia Mono, monospace" font-size="28" font-weight="800" text-anchor="middle" dominant-baseline="middle">6,0</text><rect x="1015" y="7" width="130" height="130" rx="12" fill="none" stroke="#46f6d6" stroke-width="4"/><text x="1080" y="72" fill="#f7fbff" font-family="Consolas, Cascadia Mono, monospace" font-size="28" font-weight="800" text-anchor="middle" dominant-baseline="middle">7,0</text><rect x="7" y="151" width="130" height="130" rx="12" fill="none" stroke="#46f6d6" stroke-width="4"/><text x="72" y="216" fill="#f7fbff" font-family="Consolas, Cascadia Mono, monospace" font-size="28" font-weight="800" text-anchor="middle" dominant-baseline="middle">0,1</text><rect x="151" y="151" width="130" height="130" rx="12" fill="none" stroke="#46f6d6" stroke-width="4"/><text x="216" y="216" fill="#f7fbff" font-family="Consolas, Cascadia Mono, monospace" font-size="28" font-weight="800" text-anchor="middle" dominant-baseline="middle">1,1</text><rect x="295" y="151" width="130" height="130" rx="12" fill="none" stroke="#46f6d6" stroke-width="4"/><text x="360" y="216" fill="#f7fbff" font-family="Consolas, Cascadia Mono, monospace" font-size="28" font-weight="800" text-anchor="middle" dominant-baseline="middle">2,1</text><rect x="439" y="151" width="130" height="130" rx="12" fill="none" stroke="#46f6d6" stroke-width="4"/><text x="504" y="216" fill="#f7fbff" font-family="Consolas, Cascadia Mono, monospace" font-size="28" font-weight="800" text-anchor="middle" dominant-baseline="middle">3,1</text><rect x="583" y="151" width="130" height="130" rx="12" fill="none" stroke="#46f6d6" stroke-width="4"/><text x="648" y="216" fill="#f7fbff" font-family="Consolas, Cascadia Mono, monospace" font-size="28" font-weight="800" text-anchor="middle" dominant-baseline="middle">4,1</text><rect x="727" y="151" width="130" height="130" rx="12" fill="none" stroke="#46f6d6" stroke-width="4"/><text x="792" y="216" fill="#f7fbff" font-family="Consolas, Cascadia Mono, monospace" font-size="28" font-weight="800" text-anchor="middle" dominant-baseline="middle">5,1</text><rect x="871" y="151" width="130" height="130" rx="12" fill="none" stroke="#46f6d6" stroke-width="4"/><text x="936" y="216" fill="#f7fbff" font-family="Consolas, Cascadia Mono, monospace" font-size="28" font-weight="800" text-anchor="middle" dominant-baseline="middle">6,1</text><rect x="1015" y="151" width="130" height="130" rx="12" fill="none" stroke="#46f6d6" stroke-width="4"/><text x="1080" y="216" fill="#f7fbff" font-family="Consolas, Cascadia Mono, monospace" font-size="28" font-weight="800" text-anchor="middle" dominant-baseline="middle">7,1</text><rect x="7" y="295" width="130" height="130" rx="12" fill="none" stroke="#46f6d6" stroke-width="4"/><text x="72" y="360" fill="#f7fbff" font-family="Consolas, Cascadia Mono, monospace" font-size="28" font-weight="800" text-anchor="middle" dominant-baseline="middle">0,2</text><rect x="151" y="295" width="130" height="130" rx="12" fill="none" stroke="#46f6d6" stroke-width="4"/><text x="216" y="360" fill="#f7fbff" font-family="Consolas, Cascadia Mono, monospace" font-size="28" font-weight="800" text-anchor="middle" dominant-baseline="middle">1,2</text><rect x="295" y="295" width="130" height="130" rx="12" fill="none" stroke="#46f6d6" stroke-width="4"/><text x="360" y="360" fill="#f7fbff" font-family="Consolas, Cascadia Mono, monospace" font-size="28" font-weight="800" text-anchor="middle" dominant-baseline="middle">2,2</text><rect x="439" y="295" width="130" height="130" rx="12" fill="none" stroke="#46f6d6" stroke-width="4"/><text x="504" y="360" fill="#f7fbff" font-family="Consolas, Cascadia Mono, monospace" font-size="28" font-weight="800" text-anchor="middle" dominant-baseline="middle">3,2</text><rect x="583" y="295" width="130" height="130" rx="12" fill="none" stroke="#46f6d6" stroke-width="4"/><text x="648" y="360" fill="#f7fbff" font-family="Consolas, Cascadia Mono, monospace" font-size="28" font-weight="800" text-anchor="middle" dominant-baseline="middle">4,2</text><rect x="727" y="295" width="130" height="130" rx="12" fill="none" stroke="#46f6d6" stroke-width="4"/><text x="792" y="360" fill="#f7fbff" font-family="Consolas, Cascadia Mono, monospace" font-size="28" font-weight="800" text-anchor="middle" dominant-baseline="middle">5,2</text><rect x="871" y="295" width="130" height="130" rx="12" fill="none" stroke="#46f6d6" stroke-width="4"/><text x="936" y="360" fill="#f7fbff" font-family="Consolas, Cascadia Mono, monospace" font-size="28" font-weight="800" text-anchor="middle" dominant-baseline="middle">6,2</text><rect x="1015" y="295" width="130" height="130" rx="12" fill="none" stroke="#46f6d6" stroke-width="4"/><text x="1080" y="360" fill="#f7fbff" font-family="Consolas, Cascadia Mono, monospace" font-size="28" font-weight="800" text-anchor="middle" dominant-baseline="middle">7,2</text><rect x="7" y="439" width="130" height="130" rx="12" fill="none" stroke="#46f6d6" stroke-width="4"/><text x="72" y="504" fill="#f7fbff" font-family="Consolas, Cascadia Mono, monospace" font-size="28" font-weight="800" text-anchor="middle" dominant-baseline="middle">0,3</text><rect x="151" y="439" width="130" height="130" rx="12" fill="none" stroke="#46f6d6" stroke-width="4"/><text x="216" y="504" fill="#f7fbff" font-family="Consolas, Cascadia Mono, monospace" font-size="28" font-weight="800" text-anchor="middle" dominant-baseline="middle">1,3</text><rect x="295" y="439" width="130" height="130" rx="12" fill="none" stroke="#46f6d6" stroke-width="4"/><text x="360" y="504" fill="#f7fbff" font-family="Consolas, Cascadia Mono, monospace" font-size="28" font-weight="800" text-anchor="middle" dominant-baseline="middle">2,3</text><rect x="439" y="439" width="130" height="130" rx="12" fill="none" stroke="#46f6d6" stroke-width="4"/><text x="504" y="504" fill="#f7fbff" font-family="Consolas, Cascadia Mono, monospace" font-size="28" font-weight="800" text-anchor="middle" dominant-baseline="middle">3,3</text><rect x="583" y="439" width="130" height="130" rx="12" fill="none" stroke="#46f6d6" stroke-width="4"/><text x="648" y="504" fill="#f7fbff" font-family="Consolas, Cascadia Mono, monospace" font-size="28" font-weight="800" text-anchor="middle" dominant-baseline="middle">4,3</text><rect x="727" y="439" width="130" height="130" rx="12" fill="none" stroke="#46f6d6" stroke-width="4"/><text x="792" y="504" fill="#f7fbff" font-family="Consolas, Cascadia Mono, monospace" font-size="28" font-weight="800" text-anchor="middle" dominant-baseline="middle">5,3</text><rect x="871" y="439" width="130" height="130" rx="12" fill="none" stroke="#46f6d6" stroke-width="4"/><text x="936" y="504" fill="#f7fbff" font-family="Consolas, Cascadia Mono, monospace" font-size="28" font-weight="800" text-anchor="middle" dominant-baseline="middle">6,3</text><rect x="1015" y="439" width="130" height="130" rx="12" fill="none" stroke="#46f6d6" stroke-width="4"/><text x="1080" y="504" fill="#f7fbff" font-family="Consolas, Cascadia Mono, monospace" font-size="28" font-weight="800" text-anchor="middle" dominant-baseline="middle">7,3</text><text x="24" y="548" fill="#9fb3c8" font-family="Segoe UI, Arial, sans-serif" font-size="20.160000000000004" font-weight="700" dominant-baseline="middle">ALIGNMENT  /  PRESS ANY KEY</text></svg>