<svg xmlns="http://www.w3.org/2000/svg" width="1152" height="576" viewBox="0 0 1152 576"><rect width="100%" height="100%" fill="#06080c"/><rect x="0" y="0" width="1152" height="576" fill="#06080c"/><line x1="0" y1="0" x2="0" y2="576" stroke="#172332" stroke-width="1"/><line x1="72" y1="0" x2="72" y2="576" stroke="#172332" stroke-width="1"/><line x1="144" y1="0" x2="144" y2="576" stroke="#172332" stroke-width="1"/><line x1="216" y1="0" x2="216" y2="576" stroke="#172332" stroke-width="1"/><line x1="288" y1="0" x2="288" y2="576" stroke="#172332" stroke-width="1"/><line x1="360" y1="0" x2="360" y2="576" stroke="#172332" stroke-width="1"/><line x1="432" y1="0" x2="432" y2="576" stroke="#172332" stroke-width="1"/><line x1="504" y1="0" x2="504" y2="576" stroke="#172332" stroke-width="1"/><line x1="576" y1="0" x2="576" y2="576" stroke="#172332" stroke-width="1"/><line x1="648" y1="0" x2="648" y2="576" stroke="#172332" stroke-width="1"/><line x1="720" y1="0" x2="720" y2="576" stroke="#172332" stroke-width="1"/><line x1="792" y1="0" x2="792" y2="576" stroke="#172332" stroke-width="1"/><line x1="864" y1="0" x2="864" y2="576" stroke="#172332" stroke-width="1"/><line x1="936" y1="0" x2="936" y2="576" stroke="#172332" stroke-width="1"/><line x1="1008" y1="0" x2="1008" y2="576" stroke="#172332" stroke-width="1"/><line x1="1080" y1="0" x2="1080" y2="576" stroke="#172332" stroke-width="1"/><line x1="1152" y1="0" x2="1152" y2="576" stroke="#172332" stroke-width="1"/><line x1="0" y1="0" x2="1152" y2="0" stroke="#172332" stroke-width="1"/><line x1="0" y1="72" x2="1152" y2="72" stroke="#172332" stroke-width="1"/><line x1="0" y1="144" x2="1152" y2="144" stroke="#172332" stroke-width="1"/><line x1="0" y1="216" x2="1152" y2="216" stroke="#172332" stroke-width="1"/><line x1="0" y1="288" x2="1152" y2="288" stroke="#172332" stroke-width="1"/><line x1="0" y1="360" x2="1152" y2="360" stroke="#172332" stroke-width="1"/><line x1="0" y1="432" x2="1152" y2="432" stroke="#172332" stroke-width="1"/><line x1="0" y1="504" x2="1152" y2="504" stroke="#172332" stroke-width="1"/><line x1="0" y1="576" x2="1152" y2="576" stroke="#172332" stroke-width="1"/><rect x="92.16" y="144" width="967.68" height="276.48" rx="20" fill="#101722" stroke="#46f6d6" stroke-width="4"/><text x="576" y="270.71999999999997" fill="#f7fbff" font-family="Consolas, Cascadia Mono, monospace" font-size="115.2" font-weight="800" text-anchor="middle" dominant-baseline="middle">21:11:03</text><text x="576" y="368.64" fill="#ffcc4d" font-family="Segoe UI, Arial, sans-serif" font-size="31.68" font-weight="800" text-anchor="middle" dominant-baseline="middle">FRI, JUL 17</text><text x="24" y="548" fill="#9fb3c8" font-family="Segoe UI, Arial, sans-serif" font-size="20.160000000000004" font-weight="700" dominant-baseline="middle">CLOCK  /  PRESS ANY KEY</text></svg>