<svg xmlns="http://www.w3.org/2000/svg" width="1152" height="576" viewBox="0 0 1152 576"><rect width="100%" height="100%" fill="#06080c"/><rect x="0" y="0" width="1152" height="576" fill="#06080c"/><line x1="0" y1="0" x2="0" y2="576" stroke="#172332" stroke-width="1"/><line x1="72" y1="0" x2="72" y2="576" stroke="#172332" stroke-width="1"/><line x1="144" y1="0" x2="144" y2="576" stroke="#172332" stroke-width="1"/><line x1="216" y1="0" x2="216" y2="576" stroke="#172332" stroke-width="1"/><line x1="288" y1="0" x2="288" y2="576" stroke="#172332" stroke-width="1"/><line x1="360" y1="0" x2="360" y2="576" stroke="#172332" stroke-width="1"/><line x1="432" y1="0" x2="432" y2="576" stroke="#172332" stroke-width="1"/><line x1="504" y1="0" x2="504" y2="576" stroke="#172332" stroke-width="1"/><line x1="576" y1="0" x2="576" y2="576" stroke="#172332" stroke-width="1"/><line x1="648" y1="0" x2="648" y2="576" stroke="#172332" stroke-width="1"/><line x1="720" y1="0" x2="720" y2="576" stroke="#172332" stroke-width="1"/><line x1="792" y1="0" x2="792" y2="576" stroke="#172332" stroke-width="1"/><line x1="864" y1="0" x2="864" y2="576" stroke="#172332" stroke-width="1"/><line x1="936" y1="0" x2="936" y2="576" stroke="#172332" stroke-width="1"/><line x1="1008" y1="0" x2="1008" y2="576" stroke="#172332" stroke-width="1"/><line x1="1080" y1="0" x2="1080" y2="576" stroke="#172332" stroke-width="1"/><line x1="1152" y1="0" x2="1152" y2="576" stroke="#172332" stroke-width="1"/><line x1="0" y1="0" x2="1152" y2="0" stroke="#172332" stroke-width="1"/><line x1="0" y1="72" x2="1152" y2="72" stroke="#172332" stroke-width="1"/><line x1="0" y1="144" x2="1152" y2="144" stroke="#172332" stroke-width="1"/><line x1="0" y1="216" x2="1152" y2="216" stroke="#172332" stroke-width="1"/><line x1="0" y1="288" x2="1152" y2="288" stroke="#172332" stroke-width="1"/><line x1="0" y1="360" x2="1152" y2="360" stroke="#172332" stroke-width="1"/><line x1="0" y1="432" x2="1152" y2="432" stroke="#172332" stroke-width="1"/><line x1="0" y1="504" x2="1152" y2="504" stroke="#172332" stroke-width="1"/><line x1="0" y1="576" x2="1152" y2="576" stroke="#172332" stroke-width="1"/><rect x="6.912" y="57.60000000000002" width="26.767058823529414" height="414.71999999999997" rx="8" fill="#ff5d73"/><rect x="40.591058823529416" y="95.31828792660383" width="26.767058823529414" height="377.00171207339616" rx="8" fill="#46f6d6"/><rect x="74.27011764705884" y="259.2224342542952" width="26.767058823529414" height="213.09756574570477" rx="8" fill="#46f6d6"/><rect x="107.94917647058826" y="289.1843122615815" width="26.767058823529414" height="183.13568773841848" rx="8" fill="#ffcc4d"/><rect x="141.62823529411767" y="128.929834645038" width="26.767058823529414" height="343.390165354962" rx="8" fill="#ff5d73"/><rect x="175.3072941176471" y="57.60000000000002" width="26.767058823529414" height="414.71999999999997" rx="8" fill="#46f6d6"/><rect x="208.9863529411765" y="57.60000000000002" width="26.767058823529414" height="414.71999999999997" rx="8" fill="#ffcc4d"/><rect x="242.6654117647059" y="137.17250300092581" width="26.767058823529414" height="335.1474969990742" rx="8" fill="#46f6d6"/><rect x="276.3444705882353" y="276.21436237232035" width="26.767058823529414" height="196.10563762767964" rx="8" fill="#ff5d73"/><rect x="310.02352941176474" y="322.71817720544465" width="26.767058823529414" height="149.60182279455535" rx="8" fill="#ffcc4d"/><rect x="343.7025882352942" y="232.60487840584315" width="26.767058823529414" height="239.71512159415684" rx="8" fill="#46f6d6"/><rect x="377.38164705882355" y="220.43407517867277" width="26.767058823529414" height="251.88592482132722" rx="8" fill="#46f6d6"/><rect x="411.060705882353" y="288.3513144675237" width="26.767058823529414" height="183.96868553247626" rx="8" fill="#ff5d73"/><rect x="444.7397647058824" y="326.9288373485665" width="26.767058823529414" height="145.39116265143352" rx="8" fill="#46f6d6"/><rect x="478.4188235294118" y="196.2624670286503" width="26.767058823529414" height="276.0575329713497" rx="8" fill="#46f6d6"/><rect x="512.0978823529413" y="106.56072325180469" width="26.767058823529414" height="365.7592767481953" rx="8" fill="#ffcc4d"/><rect x="545.7769411764707" y="95.01016421388357" width="26.767058823529414" height="377.3098357861164" rx="8" fill="#ff5d73"/><rect x="579.4560000000001" y="173.7043897567932" width="26.767058823529414" height="298.6156102432068" rx="8" fill="#46f6d6"/><rect x="613.1350588235296" y="325.1739665200846" width="26.767058823529414" height="147.14603347991536" rx="8" fill="#ffcc4d"/><rect x="646.814117647059" y="229.69146496485226" width="26.767058823529414" height="242.62853503514773" rx="8" fill="#46f6d6"/><rect x="680.4931764705884" y="69.31871540596711" width="26.767058823529414" height="403.0012845940329" rx="8" fill="#ff5d73"/><rect x="714.1722352941177" y="57.60000000000002" width="26.767058823529414" height="414.71999999999997" rx="8" fill="#ffcc4d"/><rect x="747.8512941176472" y="57.60000000000002" width="26.767058823529414" height="414.71999999999997" rx="8" fill="#46f6d6"/><rect x="781.5303529411766" y="79.88740148028182" width="26.767058823529414" height="392.43259851971817" rx="8" fill="#46f6d6"/><rect x="815.209411764706" y="238.5466996575981" width="26.767058823529414" height="233.77330034240188" rx="8" fill="#ff5d73"/><rect x="848.8884705882355" y="327.83274653468663" width="26.767058823529414" height="144.48725346531336" rx="8" fill="#46f6d6"/><rect x="882.5675294117649" y="196.0676416113343" width="26.767058823529414" height="276.2523583886657" rx="8" fill="#46f6d6"/><rect x="916.2465882352943" y="140.41872248092704" width="26.767058823529414" height="331.90127751907295" rx="8" fill="#ffcc4d"/><rect x="949.9256470588236" y="171.75376292470173" width="26.767058823529414" height="300.56623707529826" rx="8" fill="#ff5d73"/><rect x="983.6047058823531" y="271.7267915454245" width="26.767058823529414" height="200.5932084545755" rx="8" fill="#46f6d6"/><rect x="1017.2837647058825" y="338.00036946466184" width="26.767058823529414" height="134.31963053533818" rx="8" fill="#ffcc4d"/><rect x="1050.962823529412" y="232.69173697638018" width="26.767058823529414" height="239.6282630236198" rx="8" fill="#46f6d6"/><rect x="1084.6418823529414" y="191.41948325004154" width="26.767058823529414" height="280.90051674995846" rx="8" fill="#ff5d73"/><rect x="1118.3209411764708" y="233.82006592830413" width="26.767058823529414" height="238.49993407169586" rx="8" fill="#ffcc4d"/><text x="576" y="74.88" fill="#f7fbff" font-family="Arial Black, Segoe UI, Arial, sans-serif" font-size="37.44" font-weight="900" text-anchor="middle" dominant-baseline="middle">LIVE ACROSS THE GRID</text><text x="24" y="548" fill="#9fb3c8" font-family="Segoe UI, Arial, sans-serif" font-size="20.160000000000004" font-weight="700" dominant-baseline="middle">SPECTRUM  /  PRESS ANY KEY</text></svg>